<svg height="135.09937993892854" width="300">
    <defs id="SvgjsDefs1001">
            <linearGradient id="SvgjsLinearGradient1013">
                <stop id="SvgjsStop1014" stop-color="#905e26" offset="0"></stop>
                <stop id="SvgjsStop1015" stop-color="#f5ec9b" offset="0.5"></stop>
                <stop id="SvgjsStop1016" stop-color="#905e26" offset="1"></stop>
            </linearGradient>
            <linearGradient id="SvgjsLinearGradient1017">
                <stop id="SvgjsStop1018" stop-color="#905e26" offset="0"></stop>
                <stop id="SvgjsStop1019" stop-color="#f5ec9b" offset="0.5"></stop>
                <stop id="SvgjsStop1020" stop-color="#905e26" offset="1"></stop>
            </linearGradient>
            <linearGradient id="SvgjsLinearGradient1021">
                <stop id="SvgjsStop1022" stop-color="#905e26" offset="0"></stop>
                <stop id="SvgjsStop1023" stop-color="#f5ec9b" offset="0.5"></stop>
                <stop id="SvgjsStop1024" stop-color="#905e26" offset="1"></stop>
            </linearGradient>
        </defs>
    <g id="SvgjsG1007" featurekey="symbolFeature-0"
        transform="matrix(1.5056839938365962,0,0,1.5056839938365962,74.71580174410234,-49.29157617103139)"
        fill="url(#SvgjsLinearGradient1013)">
        <g xmlns="http://www.w3.org/2000/svg">
            <polygon points="50.621,36.095 69.579,48.937 69.579,45.579 50.621,32.737  "></polygon>
            <polygon
                points="30.255,54.951 33.099,57.073 33.099,47.088 46.369,38.1 46.369,65.574 45.678,65.574 42.66,65.574 27.906,54.563    19.135,61.11 19.135,58.652 16.054,58.652 16.054,63.41 13.153,65.574 10.151,65.574 10.151,67.263 12.415,67.263 14.134,67.263    15.646,67.263 27.906,58.112 40.168,67.263 41.486,67.263 43.399,67.263 45.678,67.263 47.266,67.263 49.213,67.263 49.213,66.67    49.213,65.574 49.213,32.737 30.255,45.579  "></polygon>
            <polygon
                points="86.847,65.574 72.094,54.563 70.719,55.589 70.719,59.139 72.094,58.112 84.354,67.263 85.866,67.263    87.585,67.263 89.849,67.263 89.849,65.574  "></polygon>
            <polygon
                points="50.621,67.263 51.207,67.263 53.465,67.263 62.108,67.263 62.108,64.419 53.465,64.419 53.465,44.616    66.735,53.605 66.735,67.263 69.579,67.263 69.579,52.097 50.621,39.254  "></polygon>
            <rect x="25.154" y="61.761" width="2.306" height="2.304"></rect>
            <rect x="28.354" y="61.761" width="2.305" height="2.304"></rect>
            <rect x="25.154" y="64.959" width="2.306" height="2.304"></rect>
            <rect x="28.354" y="64.959" width="2.305" height="2.304"></rect>
            <rect x="70.756" y="61.176" width="1.284" height="1.284"></rect>
            <rect x="72.539" y="61.176" width="1.284" height="1.284"></rect>
            <rect x="70.756" y="62.959" width="1.284" height="1.283"></rect>
            <rect x="72.539" y="62.959" width="1.284" height="1.283"></rect>
        </g>
    </g>
    <g id="SvgjsG1008" featurekey="nameFeature-0"
        transform="matrix(1.3513860904176602,0,0,1.3513860904176602,-4.404438964580691,49.17520574806487)"
        fill="url(#SvgjsLinearGradient1017)">
        <path
            d="M35.134 24.085 c0 2.0163 -0.65756 3.518 -1.6228 4.5964 c0.97048 1.0675 1.6226 2.5284 1.6226 4.4636 c0 5.046 -4.1128 6.8776 -6.8776 6.8776 l-24.997 0 l0 -22.815 l24.474 0 c2.975 0 7.4008 1.8316 7.4008 6.8776 z M29.556 34.9636 c0.43632 -0.24144 0.88232 -0.64636 0.88204 -1.8193 c0 -0.94328 -0.31938 -1.4539 -1.1389 -1.8214 c-0.745 -0.33402 -1.5585 -0.36098 -1.5661 -0.36098 l-19.779 0 l0 4.3645 l20.281 0 c0.2048 -0.0067968 0.81664 -0.083944 1.3207 -0.36277 z M29.556 25.904 c0.43632 -0.24144 0.88232 -0.64608 0.88232 -1.8193 c0 -0.94328 -0.31938 -1.4539 -1.1389 -1.8214 c-0.745 -0.33402 -1.5585 -0.36098 -1.5661 -0.36098 l-19.779 0 l0 4.3645 l20.281 0 c0.2048 -0.0067968 0.81664 -0.083944 1.3207 -0.36277 z M73.054 21.902 l-27.18 0.000039062 l0 4.3726 l18.128 0.0675 l-0.017266 4.6956 l-18.111 -0.0675 l0 4.3564 l27.18 0 l0 4.6954 l-31.875 0 l0 -22.815 l31.875 0 l0 4.6951 z M111.58000000000001 16.89 l0.033516 2.3475 c0.036641 2.5258 -0.98144 4.978 -2.8667 6.9048 c-1.7693 1.8086 -5.0244 3.9321 -10.734 4.4284 l-0.073516 9.2524 l-4.6952 -0.032188 l0.072968 -9.1988 c-4.4648 -0.36281 -8.18 -1.8598 -10.617 -4.3144 c-1.9467 -1.9608 -2.9982 -4.4612 -2.9608 -7.0404 l0.034258 -2.3474 l4.6948 0.06828 l-0.034024 2.3474 c-0.019102 1.3246 0.53336 2.5918 1.5982 3.664 c1.9606 1.9747 5.3816 3.0474 9.6268 3.014 c4.3352 -0.031641 7.7912 -1.1413 9.7316 -3.1248 c1.0183 -1.0406 1.5464 -2.2692 1.5279 -3.553 l-0.034024 -2.3474 z M146.209 19.299 c1.8355 1.8198 1.8204 4.452 1.7971 8.4364 c-0.0018359 0.29664 -0.0033984 0.604 -0.0046876 0.92236 c-0.0089064 2.3647 -0.015195 4.0732 -0.26344 5.514 c-0.21137 1.2284 -0.69948 2.9991 -2.4872 4.1908 c-2.2642 1.5093 -5.6464 1.5434 -13.056 1.6174 c-1.1572 0.011524 -2.2245 0.020156 -3.2091 0.020156 c-5.8708 0 -8.822 -0.31074 -10.708 -2.1844 c-1.964 -1.9514 -1.953 -4.8252 -1.9368 -9.1752 c0.018047 -4.8536 0.029024 -7.7832 2.4894 -9.602 c2.1227 -1.569 5.2056 -1.6103 11.96 -1.7011 l1.3479 -0.018555 c8.4176 -0.12031 11.902 -0.17027 14.071 1.9805 z M143.343 27.708 c0.013086 -2.2896 0.026914 -4.6576 -0.41728 -5.0976 c-0.55112 -0.54644 -3.0246 -0.67276 -6.3168 -0.67276 c-1.3547 0 -2.8484 0.021445 -4.4036 0.043672 l-1.3521 0.018555 c-4.8388 0.064884 -8.3348 0.11195 -9.25 0.78812 c-0.5776 0.42692 -0.587 2.9488 -0.59796 5.8692 c-0.010195 2.7118 -0.019883 5.2732 0.56032 5.8496 c0.9108 0.90508 5.8276 0.85564 10.583 0.80856 c5.4604 -0.054412 9.4056 -0.093908 10.516 -0.8342 c0.65372 -0.4358 0.66208 -2.7032 0.67384 -5.8416 c0.0010547 -0.32148 0.0028906 -0.632 0.0047264 -0.93176 z M186.574 16.974 l0.083516 11.4 c0.034258 2.5224 -0.98356 4.9712 -2.8664 6.896 c-1.9964 2.0406 -5.8816 4.484 -13.054 4.5368 c-0.069572 0.0005078 -0.13941 0.00078124 -0.20848 0.00078124 c-5.4292 0 -9.9632 -1.5595 -12.785 -4.402 c-1.9399 -1.954 -2.9907 -4.4436 -2.9611 -7.0128 l-0.083984 -11.384 l4.6952 -0.034805 l0.084492 11.433 l-0.00027344 0.025625 c-0.019375 1.3246 0.53336 2.5915 1.598 3.664 c1.9603 1.9747 5.3772 3.043 9.6272 3.014 c4.3352 -0.031914 7.7912 -1.1416 9.732 -3.1251 c1.0183 -1.0408 1.5467 -2.2692 1.5279 -3.553 l0 -0.016758 l-0.08422 -11.407 z M193.37850000000003 16.95 l31.875 0 l0 4.6954 l-13.591 0 l0 18.186 l-4.6951 0 l0 -18.186 l-13.589 0 l0 -4.6954 z"></path>
    </g>
    <g id="SvgjsG1009" featurekey="sloganFeature-0"
        transform="matrix(0.8343214682526758,0,0,0.8343214682526758,29.421481572207618,118.24999915128431)"
        fill="url(#SvgjsLinearGradient1021)">
        <path
            d="M6.5137 20.19531 c-3.0273 0 -5.3906 -1.4551 -5.8203 -4.1016 l3.0273 -0.69336 c0.19531 1.582 1.3574 2.4023 2.9102 2.4023 c1.1914 0 2.1387 -0.52734 2.1289 -1.7188 c-0.0097656 -1.3281 -1.5723 -1.748 -3.291 -2.2754 c-2.0703 -0.64453 -4.2871 -1.4063 -4.2871 -4.0039 c0 -2.627 2.1484 -4.1113 4.9805 -4.1113 c2.4805 0 4.9805 1.0059 5.5469 3.7109 l-2.832 0.70313 c-0.26367 -1.4063 -1.2109 -2.0215 -2.5391 -2.0215 c-1.1816 0 -2.1875 0.48828 -2.1875 1.6504 c0 1.084 1.3867 1.4453 2.9883 1.9238 c2.1289 0.64453 4.6484 1.4648 4.6484 4.2773 c0 2.998 -2.5098 4.2578 -5.2734 4.2578 z M34.030714843750005 20 l-2.9199 0 l-0.92773 -10.635 l-3.5742 10.635 l-1.8945 0 l-3.5742 -10.635 l-0.9375 10.635 l-2.9297 0 l1.1816 -14.111 l4.1797 0 l3.0078 8.8574 l3.0469 -8.8574 l4.1797 0 z M49.907695312499996 20 l-1.0254 -2.9102 l-5.9277 0 l-1.0254 2.9102 l-2.998 0 l5.1953 -14.111 l3.584 0 l5.1953 14.111 l-2.998 0 z M43.8134953125 14.6387 l4.209 0 l-2.0996 -5.9863 z M65.84224140625 20 l-3.6719 -6.2109 l-0.84961 0 l0 6.2109 l-2.9297 0 l0 -14.111 l5.1172 0 c3.1934 0 4.541 1.8848 4.541 4.2188 c0 1.8945 -1.0742 3.125 -2.9883 3.5352 l4.248 6.3574 l-3.4668 0 z M61.32084140625 8.32 l0 3.3691 l1.7285 0 c1.5625 0 2.1973 -0.66406 2.1973 -1.6797 c0 -1.0059 -0.63477 -1.6895 -2.1973 -1.6895 l-1.7285 0 z M83.008046875 5.888999999999999 l0 2.5781 l-3.3496 0 l0 11.533 l-2.9004 0 l0 -11.533 l-3.3691 0 l0 -2.5781 l9.6191 0 z M104.6044484375 20 l-3.6719 -6.2109 l-0.84961 0 l0 6.2109 l-2.9297 0 l0 -14.111 l5.1172 0 c3.1934 0 4.541 1.8848 4.541 4.2188 c0 1.8945 -1.0742 3.125 -2.9883 3.5352 l4.248 6.3574 l-3.4668 0 z M100.0830484375 8.32 l0 3.3691 l1.7285 0 c1.5625 0 2.1973 -0.66406 2.1973 -1.6797 c0 -1.0059 -0.63477 -1.6895 -2.1973 -1.6895 l-1.7285 0 z M121.77025390625 8.467 l-5.2344 0 l0 3.2031 l4.6387 0 l0 2.5488 l-4.6387 0 l0 3.1934 l5.2344 0 l0 2.5879 l-8.1836 0 l0 -14.111 l8.1836 0 l0 2.5781 z M137.793125 5.888999999999999 l2.9199 0 l0 14.111 l-3.3887 0 l-6.25 -10.088 l0 10.088 l-2.9199 0 l0 -14.111 l3.3496 0 l6.2891 10.029 l0 -10.029 z M155.91576171875 5.888999999999999 l0 2.5781 l-3.3496 0 l0 11.533 l-2.9004 0 l0 -11.533 l-3.3691 0 l0 -2.5781 l9.6191 0 z M178.24486328125 8.467 l-5.2344 0 l0 3.2031 l4.6387 0 l0 2.5488 l-4.6387 0 l0 3.1934 l5.2344 0 l0 2.5879 l-8.1836 0 l0 -14.111 l8.1836 0 l0 2.5781 z M194.072734375 20 l-1.0254 -2.9102 l-5.9277 0 l-1.0254 2.9102 l-2.998 0 l5.1953 -14.111 l3.584 0 l5.1953 14.111 l-2.998 0 z M187.978534375 14.6387 l4.209 0 l-2.0996 -5.9863 z M207.24368046875 20.19531 c-3.0273 0 -5.3906 -1.4551 -5.8203 -4.1016 l3.0273 -0.69336 c0.19531 1.582 1.3574 2.4023 2.9102 2.4023 c1.1914 0 2.1387 -0.52734 2.1289 -1.7188 c-0.0097656 -1.3281 -1.5723 -1.748 -3.291 -2.2754 c-2.0703 -0.64453 -4.2871 -1.4063 -4.2871 -4.0039 c0 -2.627 2.1484 -4.1113 4.9805 -4.1113 c2.4805 0 4.9805 1.0059 5.5469 3.7109 l-2.832 0.70313 c-0.26367 -1.4063 -1.2109 -2.0215 -2.5391 -2.0215 c-1.1816 0 -2.1875 0.48828 -2.1875 1.6504 c0 1.084 1.3867 1.4453 2.9883 1.9238 c2.1289 0.64453 4.6484 1.4648 4.6484 4.2773 c0 2.998 -2.5098 4.2578 -5.2734 4.2578 z M229.1746953125 5.888999999999999 l-4.6387 7.3535 l0 6.7578 l-2.9395 0 l0 -6.6895 l-4.668 -7.4219 l3.2422 0 l2.8809 4.8047 l2.8906 -4.8047 l3.2324 0 z M246.015665625 17.4121 l4.4238 0 l0 2.5879 l-7.3535 0 l0 -14.111 l2.9297 0 l0 11.523 z M256.04250859375 20 l0 -14.111 l2.9297 0 l0 14.111 l-2.9297 0 z M274.3012734375 8.467 l-5.3711 0 l0 3.2031 l4.6387 0 l0 2.5488 l-4.6387 0 l0 5.7813 l-2.9492 0 l0 -14.111 l8.3203 0 l0 2.5781 z M288.35228515625 8.467 l-5.2344 0 l0 3.2031 l4.6387 0 l0 2.5488 l-4.6387 0 l0 3.1934 l5.2344 0 l0 2.5879 l-8.1836 0 l0 -14.111 l8.1836 0 l0 2.5781 z"></path>
    </g>
</svg>