<svg fill="#d9d9d9" height="200px" width="200px" version="1.1" id="Layer_1"
    xmlns="http://www.w3.org/2000/svg" xmlns:xlink="http://www.w3.org/1999/xlink"
    viewBox="0 0 512 512" xml:space="preserve"><g id="SVGRepo_bgCarrier" stroke-width="0"></g>
    <g id="SVGRepo_tracerCarrier" stroke-linecap="round" stroke-linejoin="round"></g>
    <g id="SVGRepo_iconCarrier"> <g> <g> <path
        d="M461.913,378.435c27.618,0,50.087-22.469,50.087-50.087V128c0-9.22-7.475-16.696-16.696-16.696h-384V50.087 C111.304,22.469,88.835,0,61.217,0H16.696C7.475,0,0,7.475,0,16.696s7.475,16.696,16.696,16.696h44.522 c9.206,0,16.696,7.49,16.696,16.696c0,16.49,0,348.279,0,364.611c-19.433,6.892-33.391,25.45-33.391,47.215 c0,27.618,22.469,50.087,50.087,50.087c21.766,0,40.323-13.959,47.215-33.391h272.874C421.59,498.041,440.147,512,461.913,512 C489.531,512,512,489.531,512,461.913s-22.469-50.087-50.087-50.087c-21.766,0-40.323,13.959-47.215,33.391H141.824 c-5.039-14.207-16.313-25.481-30.52-30.52v-36.263H461.913z M111.304,144.696h367.304v183.652c0,9.206-7.49,16.696-16.696,16.696 H111.304V144.696z M461.913,445.217c9.206,0,16.696,7.49,16.696,16.696s-7.49,16.696-16.696,16.696s-16.696-7.49-16.696-16.696 S452.707,445.217,461.913,445.217z M94.609,478.609c-9.206,0-16.696-7.49-16.696-16.696s7.49-16.696,16.696-16.696 s16.696,7.49,16.696,16.696S103.815,478.609,94.609,478.609z"></path> </g> </g>
        <g> <g> <path
            d="M161.391,178.087c-9.22,0-16.696,7.475-16.696,16.696v100.174c0,9.22,7.475,16.696,16.696,16.696 s16.696-7.475,16.696-16.696V194.783C178.087,185.562,170.612,178.087,161.391,178.087z"></path> </g> </g>
        <g> <g> <path
            d="M228.174,178.087c-9.22,0-16.696,7.475-16.696,16.696v100.174c0,9.22,7.475,16.696,16.696,16.696 c9.22,0,16.696-7.475,16.696-16.696V194.783C244.87,185.562,237.394,178.087,228.174,178.087z"></path> </g> </g>
        <g> <g> <path
            d="M294.957,178.087c-9.22,0-16.696,7.475-16.696,16.696v100.174c0,9.22,7.475,16.696,16.696,16.696 s16.696-7.475,16.696-16.696V194.783C311.652,185.562,304.177,178.087,294.957,178.087z"></path> </g> </g>
        <g> <g> <path
            d="M361.739,178.087c-9.22,0-16.696,7.475-16.696,16.696v100.174c0,9.22,7.475,16.696,16.696,16.696 s16.696-7.475,16.696-16.696V194.783C378.435,185.562,370.96,178.087,361.739,178.087z"></path> </g> </g>
        <g> <g> <path
            d="M428.522,178.087c-9.22,0-16.696,7.475-16.696,16.696v100.174c0,9.22,7.475,16.696,16.696,16.696 s16.696-7.475,16.696-16.696V194.783C445.217,185.562,437.742,178.087,428.522,178.087z"></path> </g> </g> </g></svg>