<svg width="15" height="15" viewBox="0 0 15 15" fill="none" xmlns="http://www.w3.org/2000/svg">
<g id="fi-sr-wifi-alt" clip-path="url(#clip0_131_133317)">
<path id="Vector" d="M9.99989 14.3744C9.99989 14.2508 10.0365 14.1299 10.1052 14.0271C10.1739 13.9244 10.2715 13.8443 10.3857 13.797C10.4999 13.7496 10.6256 13.7373 10.7468 13.7614C10.8681 13.7855 10.9794 13.845 11.0668 13.9324C11.1542 14.0198 11.2138 14.1312 11.2379 14.2524C11.262 14.3737 11.2496 14.4994 11.2023 14.6136C11.155 14.7278 11.0749 14.8254 10.9721 14.894C10.8693 14.9627 10.7485 14.9994 10.6249 14.9994C10.4591 14.9994 10.3002 14.9335 10.1829 14.8163C10.0657 14.6991 9.99989 14.5401 9.99989 14.3744ZM12.8343 13.0481C12.9514 12.9309 13.0173 12.772 13.0173 12.6063C13.0173 12.4405 12.9514 12.2816 12.8343 12.1644C12.2482 11.5785 11.4535 11.2494 10.6249 11.2494C9.79625 11.2494 9.00153 11.5785 8.41551 12.1644C8.30166 12.2823 8.23866 12.4401 8.24009 12.604C8.24151 12.7679 8.30724 12.9246 8.42312 13.0405C8.539 13.1564 8.69576 13.2221 8.85963 13.2235C9.02351 13.225 9.18138 13.162 9.29926 13.0481C9.65656 12.7075 10.1313 12.5175 10.6249 12.5175C11.1185 12.5175 11.5932 12.7075 11.9505 13.0481C12.0677 13.1653 12.2267 13.2311 12.3924 13.2311C12.5581 13.2311 12.7171 13.1653 12.8343 13.0481ZM14.6024 11.2806C14.7196 11.1634 14.7854 11.0045 14.7854 10.8388C14.7854 10.673 14.7196 10.5141 14.6024 10.3969C13.5467 9.3435 12.1162 8.75191 10.6249 8.75191C9.13354 8.75191 7.70309 9.3435 6.64738 10.3969C6.53354 10.5148 6.47054 10.6726 6.47196 10.8365C6.47339 11.0004 6.53912 11.1571 6.655 11.273C6.77088 11.3889 6.92764 11.4546 7.09151 11.456C7.25538 11.4575 7.41326 11.3945 7.53114 11.2806C8.35251 10.4617 9.46504 10.0019 10.6249 10.0019C11.7847 10.0019 12.8973 10.4617 13.7186 11.2806C13.8358 11.3978 13.9948 11.4636 14.1605 11.4636C14.3262 11.4636 14.4852 11.3978 14.6024 11.2806ZM5.76364 12.1644C5.58949 11.9903 5.45135 11.7836 5.3571 11.556C5.26286 11.3285 5.21435 11.0847 5.21435 10.8384C5.21435 10.5922 5.26286 10.3483 5.3571 10.1208C5.45135 9.89333 5.58949 9.68662 5.76364 9.5125C6.97178 8.30774 8.58428 7.59458 10.2884 7.51131C11.9926 7.42805 13.6669 7.98063 14.9868 9.06188C14.9277 8.04799 14.5592 7.07658 13.9309 6.27865C13.3026 5.48071 12.4448 4.89461 11.473 4.59938C11.3658 4.56622 11.2685 4.50703 11.1898 4.42709C11.111 4.34714 11.0533 4.24894 11.0218 4.14125C10.691 3.07852 10.0152 2.15651 9.10125 1.52128C8.18732 0.886046 7.08757 0.573916 5.9762 0.634327C4.86484 0.694738 3.8054 1.12424 2.96571 1.85479C2.12602 2.58534 1.55409 3.57518 1.34051 4.6675C1.12079 5.77168 1.29786 6.91797 1.84051 7.90438C1.20829 8.23078 0.694202 8.74704 0.370458 9.38063C0.0467142 10.0142 -0.0704195 10.7333 0.0355103 11.4369C0.198524 12.2542 0.636156 12.9912 1.27576 13.5255C1.91536 14.0599 2.71847 14.3594 3.55176 14.3744H7.98926C6.94738 13.3413 5.92926 12.33 5.76364 12.1644Z" fill="#003366"/>
</g>
<defs>
<clipPath id="clip0_131_133317">
<rect width="15" height="15" fill="white"/>
</clipPath>
</defs>
</svg>
