<svg width="47" height="47" viewBox="0 0 47 47" fill="none" xmlns="http://www.w3.org/2000/svg">
<g clip-path="url(#clip0_131_132390)">
<path d="M36.2292 21.5417C50.4643 21.0893 50.4604 0.450417 36.2292 0C21.994 0.452375 21.998 21.0913 36.2292 21.5417ZM36.2292 17.625C35.0966 17.6174 33.9841 17.3252 32.994 16.7751L42.2334 7.53567C42.791 8.5771 43.07 9.74496 43.0433 10.926C43.0165 12.107 42.685 13.261 42.0809 14.2762C41.4768 15.2913 40.6206 16.1331 39.5953 16.7198C38.57 17.3066 37.4105 17.6184 36.2292 17.625ZM36.2292 3.91667C37.3618 3.92424 38.4743 4.21651 39.4643 4.76658L30.2249 14.006C29.6673 12.9646 29.3884 11.7967 29.4151 10.6157C29.4418 9.43469 29.7733 8.28064 30.3774 7.26549C30.9815 6.25035 31.8378 5.40857 32.8631 4.82182C33.8883 4.23507 35.0479 3.92327 36.2292 3.91667ZM36.2292 25.4583C38.2537 25.4584 40.2562 25.0385 42.1101 24.2251C43.9641 23.4117 45.6291 22.2226 47 20.7329V37.2083C46.9969 39.8043 45.9643 42.293 44.1287 44.1287C42.293 45.9643 39.8043 46.9969 37.2083 47H9.79167C7.19571 46.9969 4.70697 45.9643 2.87135 44.1287C1.03573 42.293 0.00310955 39.8043 0 37.2083L0 15.6667C0 15.3592 0.0626667 15.0792 0.0900833 14.7697L16.5753 31.255C18.4137 33.088 20.9039 34.1174 23.5 34.1174C26.0961 34.1174 28.5863 33.088 30.4247 31.255L36.2292 25.4583ZM19.3444 28.4859L1.457 10.5965C2.32352 9.15975 3.54566 7.97049 5.00555 7.14347C6.46544 6.31645 8.11381 5.87958 9.79167 5.875H22.3955C21.7581 7.705 21.4875 9.64266 21.5992 11.5773C21.711 13.5119 22.2028 15.4055 23.0467 17.1499C23.8905 18.8944 25.0698 20.4555 26.5172 21.744C27.9646 23.0325 29.6518 24.0231 31.4822 24.6593L27.6556 28.4859C26.5517 29.5847 25.0575 30.2015 23.5 30.2015C21.9425 30.2015 20.4483 29.5847 19.3444 28.4859Z" fill="#F5F5F5"/>
</g>
<defs>
<clipPath id="clip0_131_132390">
<rect width="47" height="47" fill="white"/>
</clipPath>
</defs>
</svg>
