<svg width="15" height="15" viewBox="0 0 15 15" fill="none" xmlns="http://www.w3.org/2000/svg">
<g id="fi-ss-bed" clip-path="url(#clip0_131_133308)">
<path id="Vector" d="M1.25 8.75H15V13.75H13.75V11.875H1.25V13.75H0V1.25H1.25V8.75ZM3.4375 7.5C3.74653 7.5 4.04863 7.40836 4.30558 7.23667C4.56253 7.06498 4.7628 6.82095 4.88106 6.53544C4.99932 6.24993 5.03027 5.93577 4.96998 5.63267C4.90969 5.32958 4.76087 5.05117 4.54235 4.83265C4.32383 4.61413 4.04542 4.46531 3.74233 4.40502C3.43923 4.34473 3.12507 4.37568 2.83956 4.49394C2.55405 4.6122 2.31002 4.81247 2.13833 5.06942C1.96664 5.32637 1.875 5.62847 1.875 5.9375C1.875 6.14269 1.91542 6.34587 1.99394 6.53544C2.07246 6.72501 2.18755 6.89726 2.33265 7.04236C2.62567 7.33538 3.0231 7.5 3.4375 7.5ZM13.125 3.75H7.5C7.00272 3.75 6.52581 3.94754 6.17417 4.29918C5.82254 4.65081 5.625 5.12772 5.625 5.625V7.5H15V5.625C15 5.12772 14.8025 4.65081 14.4508 4.29918C14.0992 3.94754 13.6223 3.75 13.125 3.75Z" fill="#003366"/>
</g>
<defs>
<clipPath id="clip0_131_133308">
<rect width="15" height="15" fill="white"/>
</clipPath>
</defs>
</svg>
