<svg width="17" height="17" viewBox="0 0 17 17" fill="none" xmlns="http://www.w3.org/2000/svg">
<path d="M16 8.89474V11.2632C16 12.1007 15.6488 12.9039 15.0237 13.4961C14.3986 14.0883 13.5507 14.4211 12.6667 14.4211H4.33333C3.44928 14.4211 2.60143 14.0883 1.97631 13.4961C1.35119 12.9039 1 12.1007 1 11.2632V9.36842C1 9.24279 1.05268 9.12231 1.14645 9.03348C1.24021 8.94464 1.36739 8.89474 1.5 8.89474H16ZM16 8.89474V4.15789C16 3.32037 15.6488 2.51715 15.0237 1.92493C14.3986 1.33271 13.5507 1 12.6667 1H8.5M11.8333 14.4211L12.6667 16M5.16667 14.4211L4.33333 16" stroke="#003366" stroke-width="1.5" stroke-linecap="round" stroke-linejoin="round"/>
<path d="M11.3333 4.94737H5.66667C5.39083 4.94737 5.17 4.73579 5.2 4.47526C5.32167 3.42763 5.88583 1 8.5 1C11.1142 1 11.6783 3.42763 11.8 4.47526C11.83 4.73579 11.6092 4.94737 11.3333 4.94737Z" stroke="#003366" stroke-width="1.5" stroke-linecap="round" stroke-linejoin="round"/>
</svg>
