<svg width="27" height="27" viewBox="0 0 27 27" fill="none" xmlns="http://www.w3.org/2000/svg">
<circle cx="13.5" cy="13.5" r="13.5" fill="white"/>
<g clip-path="url(#clip0_131_132883)">
<path d="M11.033 17.6817C11.489 18.2629 11.9041 18.8752 12.2752 19.514C12.5921 20.1148 12.7242 20.5222 12.9557 21.2461C13.0977 21.646 13.2261 21.7654 13.502 21.7654C13.8027 21.7654 13.9391 21.5623 14.0446 21.2483C14.2634 20.5646 14.4352 20.0429 14.7061 19.5499C15.2378 18.5982 15.8985 17.7524 16.5477 16.9396C16.7234 16.7095 17.8597 15.3693 18.3712 14.3118C18.3712 14.3118 19 13.1501 19 11.5277C19 10.0102 18.3799 8.95764 18.3799 8.95764L16.5948 9.43571L15.5107 12.291L15.2425 12.6848L15.1889 12.7561L15.1175 12.8454L14.9923 12.988L14.8134 13.1669L13.848 13.9534L11.4345 15.3469L11.033 17.6817Z" fill="#34A853"/>
<path d="M8.54187 14.1165C9.13093 15.4619 10.2669 16.6447 11.0354 17.6827L15.1175 12.8472C15.1175 12.8472 14.5424 13.5993 13.4992 13.5993C12.3372 13.5993 11.3984 12.6714 11.3984 11.5014C11.3984 10.699 11.8811 10.1478 11.8811 10.1478L9.11013 10.8903L8.54187 14.1165Z" fill="#FBBC04"/>
<path d="M15.1631 6.24866C16.5188 6.68578 17.6792 7.60346 18.3811 8.95668L15.1187 12.8444C15.1187 12.8444 15.6014 12.2832 15.6014 11.4859C15.6014 10.2886 14.5932 9.39414 13.5041 9.39414C12.4742 9.39414 11.8827 10.145 11.8827 10.145V7.6958L15.1631 6.24866Z" fill="#4285F4"/>
<path d="M9.28967 7.96647C10.0994 6.99765 11.5243 6 13.4886 6C14.4417 6 15.1597 6.25021 15.1597 6.25021L11.8796 10.1472H9.55565L9.28967 7.96647Z" fill="#1A73E8"/>
<path d="M8.54192 14.1165C8.54192 14.1165 8 13.0552 8 11.5178C8 10.0647 8.56487 8.79459 9.28971 7.96649L11.8815 10.1475L8.54192 14.1165Z" fill="#EA4335"/>
</g>
<defs>
<clipPath id="clip0_131_132883">
<rect width="11" height="15.7695" fill="white" transform="translate(8 6)"/>
</clipPath>
</defs>
</svg>
