<svg width="60" height="75" viewBox="0 0 60 75" fill="none" xmlns="http://www.w3.org/2000/svg">
<path fill-rule="evenodd" clip-rule="evenodd" d="M37.3031 59.1048C35.9876 59.4339 34.7203 59.9598 33.6355 60.7734C32.56 61.58 31.687 62.626 31.0857 63.8286L30.8944 64.2111C30.5259 64.9482 29.4741 64.9482 29.1056 64.2111L28.9143 63.8286C28.313 62.6261 27.44 61.58 26.3645 60.7734C25.2797 59.9598 24.0124 59.4339 22.6969 59.1048C9.6579 55.8435 0 44.0496 0 30C0 13.4315 13.4315 0 30 0C46.5685 0 60 13.4315 60 30C60 44.0496 50.3421 55.8435 37.3031 59.1048ZM30 75C31.6569 75 33 73.6569 33 72C33 70.3431 31.6569 69 30 69C28.3431 69 27 70.3431 27 72C27 73.6569 28.3431 75 30 75Z" fill="#F19B3F"/>
<path fill-rule="evenodd" clip-rule="evenodd" d="M40.9062 39.1791C41.6162 38.5432 42.0625 37.6205 42.0625 36.5938V26.1343C42.0626 25.603 41.9407 25.0788 41.7062 24.6021C41.4716 24.1253 41.1307 23.7089 40.7097 23.3848L32.6159 17.1595C32.0094 16.6926 31.2654 16.4394 30.5 16.4394C29.7346 16.4394 28.9906 16.6926 28.3841 17.1595L20.2903 23.3848C19.869 23.7091 19.5279 24.1259 19.2933 24.6031C19.0587 25.0802 18.937 25.6049 18.9375 26.1366V36.5938C18.9363 37.0483 19.0246 37.4986 19.1975 37.9189C19.3704 38.3392 19.6244 38.7214 19.945 39.0435C20.2657 39.3657 20.6466 39.6215 21.0662 39.7963C21.4857 39.9711 21.9356 40.0616 22.3901 40.0625H23.5625V31.9688C23.5625 30.7421 24.0498 29.5657 24.9171 28.6984C25.7845 27.831 26.9609 27.3438 28.1875 27.3438H32.8125C34.0391 27.3438 35.2155 27.831 36.0829 28.6984C36.9502 29.5657 37.4375 30.7421 37.4375 31.9688V40.0625H38.6099C39.491 40.0579 40.2981 39.7249 40.9062 39.1791ZM45.5312 36.5938C45.5312 38.4337 44.8003 40.1983 43.4993 41.4993C42.1983 42.8004 40.4337 43.5313 38.5938 43.5313H22.4062C20.5663 43.5313 18.8017 42.8004 17.5007 41.4993C16.1997 40.1983 15.4688 38.4337 15.4688 36.5938V26.1343C15.4688 25.0721 15.7128 24.0241 16.1819 23.0711C16.651 22.118 17.3327 21.2855 18.1744 20.6375L26.2681 14.4123C27.4812 13.4784 28.9691 12.972 30.5 12.972C32.0309 12.972 33.5188 13.4784 34.7319 14.4123L42.8256 20.6375C43.6672 21.2861 44.3488 22.1191 44.8179 23.0725C45.287 24.0258 45.531 25.0741 45.5312 26.1366V36.5938ZM33.9688 31.9688C33.9688 31.6621 33.8469 31.368 33.6301 31.1512C33.4133 30.9343 33.1192 30.8125 32.8125 30.8125H28.1875C27.8808 30.8125 27.5867 30.9343 27.3699 31.1512C27.1531 31.368 27.0312 31.6621 27.0312 31.9688V40.0625H33.9688V31.9688Z" fill="#F8F8F8"/>
</svg>
