<svg width="67" height="67" viewBox="0 0 67 67" fill="none" xmlns="http://www.w3.org/2000/svg">
<g id="solar:card-bold">
<g id="Mask group">
<mask id="mask0_131_133226" style="mask-type:luminance" maskUnits="userSpaceOnUse" x="5" y="11" width="57" height="45">
<g id="Group">
<g id="Group_2">
<path id="Vector" d="M39.0833 11.1667H27.9167C17.3893 11.1667 12.1242 11.1667 8.85518 14.4385C6.49901 16.7919 5.84018 20.181 5.65593 25.8229H61.3441C61.1598 20.181 60.501 16.7919 58.1448 14.4385C54.8758 11.1667 49.6107 11.1667 39.0833 11.1667ZM27.9167 55.8334H39.0833C49.6107 55.8334 54.8758 55.8334 58.1448 52.5615C61.4167 49.2925 61.4167 44.0274 61.4167 33.5C61.4167 32.2661 61.4167 31.1048 61.4111 30.0104H5.58893C5.58334 31.1048 5.58334 32.2661 5.58334 33.5C5.58334 44.0274 5.58334 49.2925 8.85518 52.5615C12.1242 55.8334 17.3893 55.8334 27.9167 55.8334Z" fill="white"/>
<path id="Vector_2" fill-rule="evenodd" clip-rule="evenodd" d="M14.6562 44.6667C14.6562 44.1114 14.8768 43.5788 15.2695 43.1862C15.6621 42.7935 16.1947 42.5729 16.75 42.5729H27.9167C28.472 42.5729 29.0045 42.7935 29.3972 43.1862C29.7898 43.5788 30.0104 44.1114 30.0104 44.6667C30.0104 45.222 29.7898 45.7545 29.3972 46.1472C29.0045 46.5398 28.472 46.7604 27.9167 46.7604H16.75C16.1947 46.7604 15.6621 46.5398 15.2695 46.1472C14.8768 45.7545 14.6563 45.222 14.6562 44.6667ZM32.8021 44.6667C32.8021 44.1114 33.0227 43.5788 33.4153 43.1862C33.808 42.7935 34.3405 42.5729 34.8958 42.5729H39.0833C39.6386 42.5729 40.1712 42.7935 40.5638 43.1862C40.9565 43.5788 41.1771 44.1114 41.1771 44.6667C41.1771 45.222 40.9565 45.7545 40.5638 46.1472C40.1712 46.5398 39.6386 46.7604 39.0833 46.7604H34.8958C34.3405 46.7604 33.808 46.5398 33.4153 46.1472C33.0227 45.7545 32.8021 45.222 32.8021 44.6667Z" fill="black"/>
</g>
</g>
</mask>
<g mask="url(#mask0_131_133226)">
<path id="Vector_3" d="M0 0H67V67H0V0Z" fill="#F8F8F8"/>
</g>
</g>
</g>
</svg>
